<svg viewBox="0 0 26 26" xmlns="http://www.w3.org/2000/svg"><path fill="#FFF" fill-rule="evenodd" d="M13 0C5.82 0 0 5.82 0 13c0 7.17 5.82 13 13 13 7.17 0 13-5.83 13-13 0-7.18-5.83-13-13-13Z"/><g fill="#450D21"><path d="M6.9 14.71c.49 2.92 3.03 5.1 6.03 5.1 2.99 0 5.54-2.18 6.03-5.11 .14-.85-.43-1.65-1.28-1.79 -.85-.15-1.65.42-1.79 1.27 -.25 1.43-1.5 2.5-2.98 2.5s-2.73-1.08-2.98-2.51c-.15-.85-.95-1.42-1.79-1.28 -.85.14-1.42.94-1.28 1.78Z"/><path d="M8.75 6.84a1.9 1.9 0 1 0 0 3.8 1.9 1.9 0 1 0 0-3.81Z"/><path d="M17.12 6.84a1.9 1.9 0 1 0 0 3.8 1.9 1.9 0 1 0 0-3.81Z"/></g></svg>