<svg viewBox="0 0 26 26" xmlns="http://www.w3.org/2000/svg"><path fill="#FFF" d="M7.23 16.84c1 0 1.85-.36 2.56-1.06 .7-.71 1.05-1.56 1.05-2.57 0-1.01-.36-1.86-1.06-2.57 -.71-.71-1.56-1.06-2.57-1.06 -1.01 0-1.86.35-2.57 1.05 -.71.7-1.06 1.55-1.06 2.56 0 1 .35 1.85 1.05 2.56 .7.7 1.55 1.05 2.56 1.05Zm0 3.61c-2.01 0-3.72-.71-5.13-2.11 -1.41-1.41-2.11-3.12-2.11-5.13s.7-3.72 2.1-5.13c1.4-1.41 3.11-2.11 5.12-2.11 1.62 0 3.04.46 4.26 1.38 1.21.92 2.06 2.06 2.54 3.43h9.58c.16 0 .31.03.46.09 .15.06.27.14.37.24l1.17 1.17c.12.12.21.25.27.4 .06.15.09.3.09.46 0 .16-.03.31-.08.45 -.06.14-.14.27-.26.39l-3.14 3.13c-.13.12-.26.21-.4.27 -.15.06-.3.09-.46.09 -.17 0-.32-.03-.46-.08 -.15-.05-.28-.14-.4-.26l-1.57-1.57 -1.57 1.56c-.13.12-.26.2-.4.25 -.15.05-.3.07-.46.07 -.17 0-.32-.03-.46-.08 -.15-.05-.28-.14-.4-.26l-1.57-1.57h-.43c-.51 1.44-1.38 2.61-2.63 3.49 -1.25.88-2.65 1.32-4.19 1.32Z"/></svg>