<svg xmlns="http://www.w3.org/2000/svg" width="41" height="41" viewBox="0 0 41 41" fill="none">
    <path fill-rule="evenodd" clip-rule="evenodd" d="M20.4998 3.4165C11.0698 3.4165 3.4165 11.0698 3.4165 20.4998C3.4165 29.9298 11.0698 37.5832 20.4998 37.5832C29.9298 37.5832 37.5832 29.9298 37.5832 20.4998C37.5832 11.0698 29.9298 3.4165 20.4998 3.4165ZM20.4998 34.1665C12.9661 34.1665 6.83317 28.0336 6.83317 20.4998C6.83317 12.9661 12.9661 6.83317 20.4998 6.83317C28.0336 6.83317 34.1665 12.9661 34.1665 20.4998C34.1665 28.0336 28.0336 34.1665 20.4998 34.1665ZM17.0832 24.207L28.3411 12.949L30.7498 15.3749L17.0832 29.0415L10.2498 22.2082L12.6586 19.7995L17.0832 24.207Z" fill="#FF303B"/>
</svg>