<?xml version="1.0" standalone="no"?>
<!DOCTYPE svg PUBLIC "-//W3C//DTD SVG 20010904//EN"
 "http://www.w3.org/TR/2001/REC-SVG-20010904/DTD/svg10.dtd">
<svg version="1.0" xmlns="http://www.w3.org/2000/svg"
 width="1041.000000pt" height="341.000000pt" viewBox="0 0 1041.000000 341.000000"
 preserveAspectRatio="xMidYMid meet">

<g transform="translate(0.000000,341.000000) scale(0.100000,-0.100000)"
fill="#ffffff" stroke="none">
<path d="M4056 3384 c-103 -33 -190 -109 -235 -204 -22 -47 -26 -69 -26 -150
0 -86 3 -102 31 -161 96 -203 352 -280 548 -165 62 36 131 117 157 184 34 85
32 207 -3 285 -38 80 -114 158 -190 192 -78 35 -206 44 -282 19z"/>
<path d="M5150 1660 l0 -1610 295 0 295 0 -2 1608 -3 1607 -292 3 -293 3 0
-1611z"/>
<path d="M10 1635 l0 -1585 305 0 305 0 0 981 0 981 53 -45 c105 -88 268 -178
417 -227 321 -108 710 -106 1020 6 146 52 358 173 419 238 14 14 28 26 33 26
4 0 8 -441 8 -980 l0 -980 305 0 305 0 0 1585 0 1585 -309 0 -308 0 -6 -92
c-15 -236 -150 -508 -329 -661 -193 -164 -429 -245 -683 -234 -363 17 -665
217 -825 548 -59 122 -89 230 -97 352 l-6 87 -303 0 -304 0 0 -1585z"/>
<path d="M7135 2280 c-390 -62 -704 -335 -834 -728 -45 -137 -62 -246 -62
-407 0 -217 33 -369 118 -541 174 -351 516 -567 949 -599 277 -20 619 81 824
244 70 56 150 133 150 145 0 6 -74 85 -166 176 l-165 165 -22 -25 c-78 -89
-252 -185 -391 -215 -245 -54 -505 42 -629 234 -52 80 -72 126 -91 209 l-14
62 763 0 762 0 7 38 c10 65 6 224 -8 322 -68 447 -363 790 -776 901 -87 24
-318 34 -415 19z m300 -485 c98 -28 190 -102 252 -205 19 -31 53 -130 53 -152
0 -4 -204 -8 -454 -8 l-454 0 8 35 c27 119 128 240 252 299 116 56 220 65 343
31z"/>
<path d="M9405 2274 c-210 -37 -390 -134 -515 -279 -145 -168 -181 -440 -84
-633 88 -177 242 -276 639 -413 286 -99 365 -155 365 -259 0 -75 -48 -131
-141 -166 -58 -23 -237 -23 -335 -1 -136 31 -294 102 -369 168 l-33 29 -44
-62 c-23 -35 -88 -129 -142 -210 l-99 -147 24 -20 c44 -36 174 -110 256 -145
210 -90 387 -128 593 -129 385 0 691 155 821 418 49 101 63 172 56 305 -6 122
-31 202 -91 293 -103 156 -281 259 -656 382 -108 36 -225 88 -260 117 -75 62
-61 169 27 221 81 47 252 62 368 32 55 -14 217 -88 257 -117 9 -7 19 -10 21
-8 2 3 32 50 67 105 35 55 94 146 132 203 37 56 68 106 68 110 0 12 -106 74
-180 105 -240 102 -523 140 -745 101z"/>
<path d="M3880 1150 l0 -1100 295 0 295 0 0 1100 0 1100 -295 0 -295 0 0
-1100z"/>
</g>
</svg>
